# xmcd
#
# Track frame offsets:
#	150
#	19812
#	35550
#	55915
#	70870
#	95730
#	111480
#	137042
#	153637
#	169157
#	185077
#
# Disc length: 2786 seconds
#
# Revision: 3
# Processed by: cddbd v1.5.2PL0 Copyright (c) Steve Scherf et al.
# Submitted via: audiograbber 1.83.01
#
DISCID=a20ae00b
DTITLE=Ware River Club - The Bad Side Of Otis Ave.
DYEAR=1998
DGENRE=Country Rock
TTITLE0=4,000 Pound Dog
TTITLE1=Brambles
TTITLE2=Akron
TTITLE3=50 Years Of Smoking
TTITLE4=Valentines Day
TTITLE5=Wanna Be With You
TTITLE6=Riverstrong
TTITLE7=Hard To Impress
TTITLE8=Rumblings
TTITLE9=Green Thumb
TTITLE10=Budge
EXTD=	
EXTT0=
EXTT1=
EXTT2=
EXTT3=
EXTT4=
EXTT5=
EXTT6=
EXTT7=
EXTT8=
EXTT9=
EXTT10=
PLAYORDER=
